<svg xmlns="http://www.w3.org/2000/svg" viewBox="0 0 190 100">
  <rect width="190" height="100" fill="#fff"/>
  <g fill="#b22234">
    <rect width="190" height="7.692" y="0"/>
    <rect width="190" height="7.692" y="15.384"/>
    <rect width="190" height="7.692" y="30.768"/>
    <rect width="190" height="7.692" y="46.152"/>
    <rect width="190" height="7.692" y="61.536"/>
    <rect width="190" height="7.692" y="76.92"/>
    <rect width="190" height="7.692" y="92.304"/>
  </g>
  <rect width="76" height="53.846" fill="#3c3b6e"/>
  <g fill="#fff">
    <circle cx="8" cy="7" r="2.1"/><circle cx="20" cy="7" r="2.1"/><circle cx="32" cy="7" r="2.1"/><circle cx="44" cy="7" r="2.1"/><circle cx="56" cy="7" r="2.1"/><circle cx="68" cy="7" r="2.1"/>
    <circle cx="14" cy="14" r="2.1"/><circle cx="26" cy="14" r="2.1"/><circle cx="38" cy="14" r="2.1"/><circle cx="50" cy="14" r="2.1"/><circle cx="62" cy="14" r="2.1"/>
    <circle cx="8" cy="21" r="2.1"/><circle cx="20" cy="21" r="2.1"/><circle cx="32" cy="21" r="2.1"/><circle cx="44" cy="21" r="2.1"/><circle cx="56" cy="21" r="2.1"/><circle cx="68" cy="21" r="2.1"/>
    <circle cx="14" cy="28" r="2.1"/><circle cx="26" cy="28" r="2.1"/><circle cx="38" cy="28" r="2.1"/><circle cx="50" cy="28" r="2.1"/><circle cx="62" cy="28" r="2.1"/>
    <circle cx="8" cy="35" r="2.1"/><circle cx="20" cy="35" r="2.1"/><circle cx="32" cy="35" r="2.1"/><circle cx="44" cy="35" r="2.1"/><circle cx="56" cy="35" r="2.1"/><circle cx="68" cy="35" r="2.1"/>
    <circle cx="14" cy="42" r="2.1"/><circle cx="26" cy="42" r="2.1"/><circle cx="38" cy="42" r="2.1"/><circle cx="50" cy="42" r="2.1"/><circle cx="62" cy="42" r="2.1"/>
    <circle cx="8" cy="49" r="2.1"/><circle cx="20" cy="49" r="2.1"/><circle cx="32" cy="49" r="2.1"/><circle cx="44" cy="49" r="2.1"/><circle cx="56" cy="49" r="2.1"/><circle cx="68" cy="49" r="2.1"/>
  </g>
</svg>
